<?xml version="1.0" encoding="UTF-8"?>
<svg xmlns="http://www.w3.org/2000/svg" viewBox="0 0 406.32 406.32">
  <defs>
    <style>
      .cls-1, .cls-2 {
        stroke-width: 0px;
      }

      .cls-2 {
        fill: #fff;
      }
    </style>
  </defs>
  <g id="Guides">
    <rect class="cls-1" width="406.32" height="406.32"/>
  </g>
  <g id="UTS_Logo_VERTICAL_Lock-Up" data-name="UTS Logo VERTICAL Lock-Up">
    <g>
      <rect class="cls-2" x="206.41" y="190.41" width="23.32" height="23.32" transform="translate(-79.02 213.38) rotate(-45)"/>
      <path class="cls-2" d="m271.49,206l12.56,12.56,16.49-16.49-16.8-16.8c-6.77-6.77-17.73-6.77-24.5,0l-57.67,57.67,16.49,16.49,53.42-53.42Z"/>
      <path class="cls-2" d="m267.56,275.92l-16.49-16.49-12.56,12.56-12.56-12.56-16.5,16.5,16.8,16.8c6.77,6.77,17.73,6.77,24.5,0l16.81-16.81Z"/>
      <path class="cls-2" d="m271.49,304.98l-12.56-12.56-16.5,16.5,16.81,16.81c6.77,6.77,17.73,6.77,24.5,0l16.81-16.81-16.5-16.5-12.56,12.56Z"/>
      <path class="cls-2" d="m304.48,271.99l-12.56-12.56-16.49,16.49,16.81,16.81c6.77,6.77,17.73,6.77,24.5,0l16.8-16.8-16.5-16.5-12.56,12.56Z"/>
      <rect class="cls-2" x="313.25" y="231.27" width="23.32" height="23.33" transform="translate(-76.61 300.9) rotate(-45)"/>
      <path class="cls-2" d="m271.49,239l-12.56-12.56-16.49,16.49,16.8,16.8c6.77,6.77,17.73,6.77,24.5,0l57.67-57.67-16.5-16.5-53.42,53.43Z"/>
      <rect class="cls-2" x="255.94" y="80.97" width="31.11" height="31.11" transform="translate(11.24 220.19) rotate(-44.99)"/>
      <path class="cls-2" d="m244.05,146.6h15.78v31.23c7.17-4.25,16.17-4.25,23.33,0v-31.22h15.78l10.33,10.33,22-22-22-22-10.33,10.33h-54.89l-10.33-10.33-22,22,22,22,10.33-10.33Z"/>
      <polygon class="cls-2" points="74.92 167.12 74.92 231.32 94.19 231.32 94.19 210.07 174.64 210.07 174.64 188.37 94.19 188.37 94.19 167.12 74.92 167.12"/>
      <path class="cls-2" d="m144.13,250.47h-69.21s0,21.71,0,21.71h68.91c8.04,0,13.05,4.71,13.05,12.14s-5.01,12.14-13.05,12.14h-68.91v21.71h69.21c19.73,0,32.03-13.66,32.03-33.85s-12.29-33.85-32.03-33.85Z"/>
      <path class="cls-2" d="m144.89,86.64c-18.37,0-24.74,11.84-29.45,24.29l-4.71,12.45c-2.58,6.83-6.98,8.04-9.87,8.04-5.46,0-9.56-3.95-9.56-10.93s4.55-11.38,11.69-11.38h2.73v-20.34h-2.28c-18.52,0-30.05,12.75-30.05,31.72,0,19.88,13.66,31.42,28.84,31.42s23.22-7.59,28.69-22.01l5.31-13.96c2.43-6.22,5.77-8.65,10.78-8.65,6.98,0,11.08,4.55,11.08,12.75s-3.79,13.21-11.84,13.21h-3.64v20.49h3.49c18.52,0,30.05-14.27,30.05-33.7,0-21.25-12.9-33.39-31.27-33.39Z"/>
    </g>
  </g>
</svg>